HIERARCHY
ROOT joint_Root
{
	OFFSET 0.0 0.0 0.0
	CHANNELS 6 Xposition Yposition Zposition Zrotation Xrotation Yrotation 
	JOINT Hips
	{
		OFFSET -0.726466 93.3139 -2.00062
		CHANNELS 6 Xposition Yposition Zposition Zrotation Xrotation Yrotation 
		JOINT Spine
		{
			OFFSET 15.7357 0.0 0.0
			CHANNELS 6 Xposition Yposition Zposition Zrotation Xrotation Yrotation 
			JOINT Chest
			{
				OFFSET 8.98455 -0.406207 0.0
				CHANNELS 6 Xposition Yposition Zposition Zrotation Xrotation Yrotation 
				JOINT Neck
				{
					OFFSET 16.3773 0.0 0.0
					CHANNELS 6 Xposition Yposition Zposition Zrotation Xrotation Yrotation 
					JOINT Head
					{
						OFFSET 6.45672 0.0 0.0
						CHANNELS 6 Xposition Yposition Zposition Zrotation Xrotation Yrotation 
						End Site
						{
							OFFSET 0.0 0.0 0.0
						}
					}
				}
				JOINT Shoulder_L
				{
					OFFSET 12.9942 -0.242716 4.98039
					CHANNELS 6 Xposition Yposition Zposition Zrotation Xrotation Yrotation 
					JOINT UpperArm_L
					{
						OFFSET 5.34809 0.0 0.0
						CHANNELS 6 Xposition Yposition Zposition Zrotation Xrotation Yrotation 
						JOINT LowerArm_L
						{
							OFFSET 24.3286 1.87007e-05 0.0
							CHANNELS 6 Xposition Yposition Zposition Zrotation Xrotation Yrotation 
							JOINT Hand_L
							{
								OFFSET 22.2916 0.0 0.0
								CHANNELS 6 Xposition Yposition Zposition Zrotation Xrotation Yrotation 
								End Site
								{
									OFFSET 0.0 0.0 0.0
								}
							}
						}
					}
				}
				JOINT Shoulder_R
				{
					OFFSET 12.9945 -0.242716 -4.98039
					CHANNELS 6 Xposition Yposition Zposition Zrotation Xrotation Yrotation 
					JOINT UpperArm_R
					{
						OFFSET -5.34813 0.0 0.0
						CHANNELS 6 Xposition Yposition Zposition Zrotation Xrotation Yrotation 
						JOINT LowerArm_R
						{
							OFFSET -24.3289 0.000322201 0.0
							CHANNELS 6 Xposition Yposition Zposition Zrotation Xrotation Yrotation 
							JOINT Hand_R
							{
								OFFSET -22.2915 -0.000108084 0.0
								CHANNELS 6 Xposition Yposition Zposition Zrotation Xrotation Yrotation 
								End Site
								{
									OFFSET 0.0 0.0 0.0
								}
							}
						}
					}
				}
			}
		}
		JOINT UpperLeg_L
		{
			OFFSET -2.19248 -6.46944 0.0
			CHANNELS 6 Xposition Yposition Zposition Zrotation Xrotation Yrotation 
			JOINT LowerLeg_L
			{
				OFFSET 39.0811 0.0 -1.23785e-05
				CHANNELS 6 Xposition Yposition Zposition Zrotation Xrotation Yrotation 
				JOINT Foot_L
				{
					OFFSET 40.9854 0.0 -1.26872e-05
					CHANNELS 6 Xposition Yposition Zposition Zrotation Xrotation Yrotation 
					JOINT Toes_L
					{
						OFFSET 11.7543 0.0 0.0
						CHANNELS 6 Xposition Yposition Zposition Zrotation Xrotation Yrotation 
						End Site
						{
							OFFSET 0.0 0.0 0.0
						}
					}
				}
			}
		}
		JOINT UpperLeg_R
		{
			OFFSET -2.19251 6.46944 0.0
			CHANNELS 6 Xposition Yposition Zposition Zrotation Xrotation Yrotation 
			JOINT LowerLeg_R
			{
				OFFSET -39.0811 -0.00228153 -0.0401928
				CHANNELS 6 Xposition Yposition Zposition Zrotation Xrotation Yrotation 
				JOINT Foot_R
				{
					OFFSET -40.9854 0.0 0.0
					CHANNELS 6 Xposition Yposition Zposition Zrotation Xrotation Yrotation 
					JOINT Toes_R
					{
						OFFSET -11.7543 0.0 0.0
						CHANNELS 6 Xposition Yposition Zposition Zrotation Xrotation Yrotation 
						End Site
						{
							OFFSET 0.0 0.0 0.0
						}
					}
				}
			}
		}
	}
}
MOTION
Frames:	6
Frame Time:	0.0333333
0.000000 0.000000 0.000000 0.000000 0.000000 -0.000000 2.340270 85.525100 -21.206200 89.135900 13.965000 0.014061 15.735700 0.000005 -0.000001 56.628200 78.742200 -55.185600 8.984550 -0.406207 -0.000000 11.384900 -12.244100 4.117540 16.377300 -0.000001 -0.000001 8.581890 -3.478760 -0.757319 6.456720 -0.000001 -0.000000 2.197360 3.757930 1.242680 12.994200 -0.242716 4.980390 -87.225200 -8.081240 -70.977100 5.348090 -0.000007 -0.000001 -27.855800 11.705400 -40.956900 24.328600 0.000019 0.000005 -5.413360 -2.359280 -66.519500 22.291600 -0.000001 0.000005 6.610960 5.582730 -10.358000 12.994500 -0.242716 -4.980390 89.374900 1.015260 -58.377600 -5.348130 -0.000001 -0.000004 -50.370100 27.203100 2.130060 -24.328900 0.000322 -0.000009 -0.051213 -0.042103 -49.889700 -22.291500 -0.000108 -0.000004 1.727300 5.566370 -9.503570 -2.192480 -6.469440 -0.000000 -169.661000 -1.609650 11.046800 39.081100 -0.000007 -0.000012 -0.096941 0.178820 28.463000 40.985400 -0.000006 -0.000013 0.811348 10.129200 -76.785600 11.754300 -0.000000 0.000003 -0.332331 -0.486420 -25.456800 -2.192510 6.469440 -0.000001 -172.448000 31.008100 142.712000 -39.081100 -0.002282 -0.040193 -0.001064 0.019784 12.534100 -40.985400 0.000008 0.000006 -5.273940 -0.427068 -59.411100 -11.754300 -0.000006 -0.000006 -0.024043 -0.188733 -24.292500
0.000000 0.000000 0.000000 0.000000 0.000000 -0.000000 1.248360 84.351300 -15.116000 88.265200 15.376100 -1.147690 15.735700 0.000005 -0.000001 54.390400 78.945400 -52.291700 8.984550 -0.406207 -0.000000 10.641500 -12.733600 5.399290 16.377300 -0.000001 -0.000001 9.239120 -3.790660 -0.869145 6.456720 -0.000001 -0.000000 1.966710 3.807100 1.204510 12.994200 -0.242716 4.980390 -87.523000 -7.329770 -71.269500 5.348090 -0.000007 -0.000001 -30.078500 10.932400 -39.783800 24.328600 0.000019 0.000005 -5.048010 -2.154710 -66.943800 22.291600 -0.000001 0.000005 7.190980 5.585330 -10.501400 12.994500 -0.242716 -4.980390 89.263700 1.171070 -57.837100 -5.348130 -0.000001 -0.000004 -50.850700 24.084600 4.478720 -24.328900 0.000322 -0.000009 0.377408 0.322548 -49.573400 -22.291500 -0.000108 -0.000004 2.002880 5.564590 -9.414780 -2.192480 -6.469440 -0.000000 -166.202000 -1.063440 11.448700 39.081100 -0.000007 -0.000012 -0.092468 0.155838 30.683500 40.985400 -0.000006 -0.000013 -0.420619 12.347800 -73.257300 11.754300 -0.000000 0.000003 -0.084805 -0.405187 -33.420400 -2.192510 6.469440 -0.000001 -169.738000 29.066100 136.602000 -39.081100 -0.002282 -0.040193 0.081279 -0.177837 23.672800 -40.985400 0.000008 0.000006 7.345580 -2.865960 -58.942000 -11.754300 -0.000006 -0.000006 -0.033964 -0.235091 -26.214500
0.000000 0.000000 0.000000 0.000000 0.000000 -0.000000 0.054408 83.496300 -8.366300 86.276500 15.964300 -1.522680 15.735700 0.000005 -0.000001 53.589200 79.354400 -50.520600 8.984550 -0.406207 -0.000000 9.889170 -12.506800 7.238350 16.377300 -0.000001 -0.000001 9.870220 -4.074300 -1.139990 6.456720 -0.000001 -0.000000 1.938310 3.810160 0.835272 12.994200 -0.242716 4.980390 -87.952100 -6.082320 -71.351600 5.348090 -0.000007 -0.000001 -33.252000 11.964400 -37.158600 24.328600 0.000019 0.000005 -3.255950 -1.352990 -67.462600 22.291600 -0.000001 0.000005 7.539930 5.583310 -10.390600 12.994500 -0.242716 -4.980390 88.990500 1.598120 -57.713800 -5.348130 -0.000001 -0.000004 -50.768900 21.391000 6.487690 -24.328900 0.000322 -0.000009 0.398515 0.349522 -48.835700 -22.291500 -0.000108 -0.000004 2.413330 5.563300 -9.349520 -2.192480 -6.469440 -0.000000 -161.600000 -1.330940 11.380400 39.081100 -0.000007 -0.000012 -0.032251 0.047298 34.289700 40.985400 -0.000006 -0.000013 -1.027660 13.968600 -65.680700 11.754300 -0.000000 0.000003 -0.213467 -0.667029 -45.269900 -2.192510 6.469440 -0.000001 -170.934000 24.063000 133.787000 -39.081100 -0.002282 -0.040193 0.162221 -0.235171 34.050800 -40.985400 0.000008 0.000006 5.623720 -6.675330 -49.561100 -11.754300 -0.000006 -0.000006 -0.036362 -0.245271 -26.638500
0.000000 0.000000 0.000000 0.000000 0.000000 -0.000000 -0.760757 82.863600 -1.230900 84.742300 14.315600 2.061380 15.735700 0.000005 -0.000001 58.392100 78.624400 -54.776600 8.984550 -0.406207 -0.000000 12.179000 -11.682800 8.500200 16.377300 -0.000001 -0.000001 9.402100 -3.568140 -1.336700 6.456720 -0.000001 -0.000000 1.409980 4.040270 -0.143862 12.994200 -0.242716 4.980390 -88.121900 -5.480640 -71.051500 5.348090 -0.000007 -0.000001 -38.824500 13.408100 -31.885700 24.328600 0.000019 0.000005 -1.664680 -0.647845 -68.742800 22.291600 -0.000001 0.000005 7.735460 5.582090 -10.324400 12.994500 -0.242716 -4.980390 89.178300 1.331710 -58.319700 -5.348130 -0.000001 -0.000004 -51.155600 20.070400 5.668600 -24.328900 0.000322 -0.000009 0.544015 0.509734 -46.940900 -22.291500 -0.000108 -0.000004 2.733860 5.566370 -9.503920 -2.192480 -6.469440 -0.000000 -159.702000 0.068915 13.292500 39.081100 -0.000007 -0.000012 0.108628 -0.123728 41.281300 40.985400 -0.000006 -0.000013 -0.058867 11.521100 -54.046400 11.754300 -0.000000 0.000003 -0.272559 -0.753899 -49.530700 -2.192510 6.469440 -0.000001 -172.660000 19.801600 136.929000 -39.081100 -0.002282 -0.040193 0.060416 -0.058126 44.515200 -40.985400 0.000008 0.000006 2.961530 -8.686080 -52.761400 -11.754300 -0.000006 -0.000006 -0.025264 -0.194872 -24.546300
0.000000 0.000000 0.000000 0.000000 0.000000 -0.000000 -1.568010 82.805400 5.210050 83.756900 13.112700 4.257440 15.735700 0.000005 -0.000001 61.738600 78.009900 -57.878900 8.984550 -0.406207 -0.000000 13.932000 -11.022400 9.091890 16.377300 -0.000001 -0.000001 8.970330 -3.150400 -0.758695 6.456720 -0.000001 -0.000000 1.220180 3.964990 -0.500614 12.994200 -0.242716 4.980390 -88.134500 -5.424530 -70.988700 5.348090 -0.000007 -0.000001 -44.111600 15.236000 -26.854700 24.328600 0.000019 0.000005 -2.363210 -0.940754 -68.311100 22.291600 -0.000001 0.000005 7.517650 5.587950 -10.647800 12.994500 -0.242716 -4.980390 89.034800 1.621220 -59.226700 -5.348130 -0.000001 -0.000004 -51.476600 20.541700 3.048140 -24.328900 0.000322 -0.000009 1.016750 1.009380 -45.249100 -22.291500 -0.000108 -0.000004 2.633470 5.567570 -9.564370 -2.192480 -6.469440 -0.000000 -159.855000 2.373600 10.317100 39.081100 -0.000007 -0.000012 0.245759 -0.198601 51.057600 40.985400 -0.000006 -0.000013 -0.755205 4.783620 -39.842300 11.754300 -0.000000 0.000003 -0.053044 -0.308465 -29.292300 -2.192510 6.469440 -0.000001 -171.120000 21.046200 139.940000 -39.081100 -0.002282 -0.040193 0.131362 -0.103815 50.982000 -40.985400 0.000008 0.000006 6.845240 -7.352030 -59.292300 -11.754300 -0.000006 -0.000006 -0.011181 -0.112260 -21.148500
0.000000 0.000000 0.000000 0.000000 0.000000 -0.000000 -2.214040 83.202600 10.739200 83.702400 12.210500 4.846750 15.735700 0.000005 -0.000001 64.378300 78.113300 -60.575600 8.984550 -0.406207 -0.000000 14.171700 -9.950820 8.864010 16.377300 -0.000001 -0.000001 8.974500 -3.327480 -0.401038 6.456720 -0.000001 -0.000000 1.837620 3.177950 -0.069212 12.994200 -0.242716 4.980390 -88.072900 -5.588390 -70.939000 5.348090 -0.000007 -0.000001 -48.373700 18.715100 -23.471900 24.328600 0.000019 0.000005 -1.669670 -0.770696 -65.201700 22.291600 -0.000001 0.000005 6.384610 5.586640 -10.570400 12.994500 -0.242716 -4.980390 88.831800 1.993290 -59.619100 -5.348130 -0.000001 -0.000004 -51.300000 22.645900 -0.062910 -24.328900 0.000322 -0.000009 0.908703 0.923125 -44.588200 -22.291500 -0.000108 -0.000004 2.799380 5.572150 -9.798100 -2.192480 -6.469440 -0.000000 -161.485000 3.352490 4.896280 39.081100 -0.000007 -0.000012 0.249554 -0.141425 60.458700 40.985400 -0.000006 -0.000013 3.529700 -0.597293 -35.347100 11.754300 -0.000000 0.000003 -0.007700 -0.085572 -20.061100 -2.192510 6.469440 -0.000001 -170.989000 21.517800 143.434000 -39.081100 -0.002282 -0.040193 0.156695 -0.112163 53.837700 -40.985400 0.000008 0.000006 7.327370 -7.171030 -65.050900 -11.754300 -0.000006 -0.000006 -0.008227 -0.089874 -20.233100
